<?xml version="1.0" encoding="UTF-8"?>
<!DOCTYPE svg PUBLIC "-//W3C//DTD SVG 1.1//EN" "http://www.w3.org/Graphics/SVG/1.1/DTD/svg11.dtd">
<!-- Creator: CorelDRAW -->
<svg xmlns="http://www.w3.org/2000/svg" xml:space="preserve"   width="70" height="70" x="0px" y="0px"  version="1.1" style="shape-rendering:geometricPrecision; text-rendering:geometricPrecision; image-rendering:optimizeQuality; fill-rule:evenodd; clip-rule:evenodd"
viewBox="0 0 1706.66 1706.66"
 xmlns:xlink="http://www.w3.org/1999/xlink"
 xmlns:xodm="http://www.corel.com/coreldraw/odm/2003">
 <defs>
  <style type="text/css">
   <![CDATA[
    .fil0 {fill:black}
   ]]>
  </style>
 </defs>
 <g id="Layer_x0020_1">
  <metadata id="CorelCorpID_0Corel-Layer"/>
  <path class="fil0" d="M322.79 1706.56c-21.81,0 -118.26,-6.46 -124.4,-34.44 -1.46,-6.65 0.58,-13.59 5.4,-18.43l197.63 -197.63 -50.32 -100.48 -100.5 -50.32 -197.61 197.62c-10.25,10.23 -27.83,6.52 -32.89,-7.2 -97.16,-263.96 166.12,-516.73 424.76,-412.05l269.84 -269.91c18.61,-18.63 46.91,9.66 28.28,28.28l-279.46 279.48c-5.92,5.89 -14.86,7.5 -22.44,4.04 -215.73,-98.41 -448.71,97.64 -392.89,325.56l184.3 -184.31c6.09,-6.09 15.4,-7.6 23.1,-3.75 19.15,9.58 122.07,56.26 128.28,68.7l59.75 119.35c3.86,7.71 2.35,17.02 -3.75,23.1l-184.32 184.31c227.87,55.78 424.07,-177.15 325.56,-392.88 -3.47,-7.59 -1.85,-16.53 4.06,-22.44l233.22 -233.22c18.63,-18.65 46.89,9.7 28.28,28.3l-223.61 223.6c85.42,211.08 -69.46,444.72 -300.25,444.72zm701.27 -854.04c-17.63,0 -26.82,-21.48 -14.15,-34.14l233.2 -233.22c5.91,-5.9 14.87,-7.51 22.44,-4.06 215.76,98.45 448.67,-97.66 392.88,-325.55l-184.3 184.32c-6.08,6.11 -15.4,7.57 -23.1,3.75 -19.09,-9.52 -122.06,-56.29 -128.28,-68.67l-59.76 -119.35c-3.85,-7.7 -2.34,-17 3.75,-23.1l184.32 -184.31c-227.87,-55.86 -424.04,177.22 -325.56,392.88 3.47,7.6 1.86,16.54 -4.04,22.45l-279.45 279.47c-18.61,18.63 -46.91,-9.66 -28.28,-28.28l269.89 -269.89c-104.96,-259.37 149.31,-521.8 412.04,-424.74 13.66,5.05 17.5,22.6 7.2,32.89l-197.61 197.61 50.32 100.5 100.47 50.32 197.62 -197.63c10.35,-10.35 27.87,-6.41 32.9,7.2 97.14,262.69 -165.39,516.98 -424.74,412.06l-223.61 223.64c-3.91,3.9 -9.04,5.85 -14.15,5.85z"/>
  <path class="fil0" d="M1428.36 1660.09c-62.13,0 -120.4,-24.02 -164.06,-67.68l-360.85 -360.87c-18.65,-18.65 9.7,-46.91 28.3,-28.29l360.85 360.85c120.32,120.35 327.47,35.11 327.47,-135.74 0,-51.46 -19.87,-99.67 -55.97,-135.74l-360.84 -360.85c-18.65,-18.65 9.69,-46.91 28.29,-28.3l360.84 360.85c144.31,144.34 43.95,395.76 -164.03,395.76z"/>
  <path class="fil0" d="M1016.17 1335.96c-17.64,0 -26.81,-21.5 -14.15,-34.16l299.78 -299.78c18.65,-18.65 46.91,9.7 28.3,28.3l-299.78 299.78c-3.91,3.91 -9.03,5.86 -14.14,5.86z"/>
  <path class="fil0" d="M1102.21 1422.01c-17.64,0 -26.81,-21.5 -14.15,-34.16l299.79 -299.8c18.65,-18.65 46.91,9.7 28.29,28.3l-299.78 299.8c-3.91,3.92 -9.03,5.86 -14.14,5.86z"/>
  <path class="fil0" d="M1434.61 1543.93c-96.86,0 -145.96,-117.94 -77.29,-186.61 68.76,-68.76 186.61,-19.74 186.61,77.29 0,60.39 -48.93,109.32 -109.31,109.32zm0 -178.62c-91.12,0 -91.12,138.62 0,138.62 91.29,0 91.28,-138.62 0,-138.62z"/>
  <path class="fil0" d="M863.48 1278.49c-28.72,0 -45.48,-24.15 -68.97,-47.64 -20.05,-20.05 -20.06,-52.65 0,-72.69l363.63 -363.63c19.4,-19.39 53.35,-19.36 72.69,0 20.55,20.56 75.08,62.86 32.61,105.3l-363.6 363.65c-9.71,9.69 -22.61,15.01 -36.36,15.01zm331.01 -458.98c-3.07,0 -5.93,1.18 -8.07,3.31l-363.63 363.63c-12.08,12.08 11.93,28.04 32.63,48.74 4.25,4.25 11.86,4.28 16.14,0l363.62 -363.65c13.53,-13.51 -33.17,-52.03 -40.68,-52.03z"/>
  <path class="fil0" d="M894.7 1106.27c-5.11,0 -10.24,-1.96 -14.15,-5.87l-88.86 -88.87c-12.07,-12.07 -15.33,-30.99 -3.43,-42.86l180.41 -180.4c11.98,-11.97 30.88,-8.52 42.83,3.45l88.88 88.85c18.63,18.65 -9.7,46.91 -28.3,28.29l-83.72 -83.72 -163.23 163.24 83.72 83.74c12.63,12.63 3.52,34.15 -14.15,34.15z"/>
  <path class="fil0" d="M843.1 962.13c-5.12,0 -10.24,-1.96 -14.13,-5.86l-430.31 -430.31 -136.36 -36.54c-5.25,-1.42 -9.7,-4.9 -12.33,-9.65l-133.25 -241.5c-4.3,-7.81 -2.93,-17.51 3.37,-23.81l94.37 -94.37c6.3,-6.3 16,-7.67 23.8,-3.37l241.5 133.23c4.77,2.62 8.25,7.08 9.65,12.33l36.53 136.36 430.31 430.31c18.64,18.62 -9.69,46.91 -28.29,28.28l-434.09 -434.07c-8.3,-8.3 -35.57,-122.4 -40.91,-142.29l-220.87 -121.86 -73.11 73.1 121.86 220.87c19.87,5.32 134,32.61 142.29,40.9l434.1 434.09c12.66,12.65 3.49,34.15 -14.14,34.15z"/>
 </g>
</svg>
