<?xml version="1.0" encoding="UTF-8"?><svg id="Outline" xmlns="http://www.w3.org/2000/svg" viewBox="0 0 64 64"  width="70" height="70" fill="currentColor">
<path d="M30.884,52.823c.305,0,.605-.139,.802-.402,.533-.713,1.167-1.327,1.885-1.826,.454-.315,.566-.938,.251-1.392-.314-.453-.938-.567-1.392-.251-.896,.622-1.685,1.386-2.346,2.272-.331,.442-.24,1.069,.202,1.399,.18,.134,.39,.199,.598,.199Z"/><path d="M37.055,49.18c.047,0,.095-.003,.143-.01l4.944-.707c.547-.078,.927-.584,.849-1.131-.078-.546-.586-.93-1.132-.848l-4.944,.707c-.547,.078-.927,.584-.849,1.131,.071,.499,.499,.858,.989,.858Z"/><path d="M60,50.111v-3.341c0-1.749-.756-3.405-2.075-4.546-1.313-1.137-3.054-1.644-4.776-1.394l-12.838,1.834-1.321-3.608c-.189-.518-.764-.787-1.281-.596l-1.416,.516L28.146,8.823c-.52-1.948-1.69-3.698-3.299-4.927-1.601-1.223-3.595-1.896-5.617-1.896-5.09,0-9.23,4.141-9.23,9.23V45H6c-1.654,0-3,1.346-3,3v5c0,.552,.447,1,1,1H22c.553,0,1-.448,1-1v-5c0-1.654-1.346-3-3-3h-4V11.23c0-.87,.335-1.679,.952-2.288,.6-.607,1.409-.942,2.278-.942,1.461,0,2.741,.981,3.114,2.391l8.29,30.644-1.417,.516c-.25,.09-.452,.277-.564,.517-.112,.241-.124,.516-.033,.765l1.138,3.122c-1.086,.811-2.054,1.771-2.879,2.875-1.884,2.513-2.88,5.497-2.88,8.63v1.54c0,.552,.447,1,1,1h25.111c1.263,1.235,2.988,2,4.889,2,3.859,0,7-3.14,7-7,0-1.902-.765-3.627-2-4.889Zm-21.714-7.157l-1.936,.277c-1.725,.245-3.355,.803-4.862,1.628l-.646-1.77,6.612-2.407,.832,2.272Zm-17.286,9.047H5v-1H21v1Zm0-4v1H5v-1c0-.551,.448-1,1-1h14c.552,0,1,.449,1,1Zm-9-3v-8h2v8h-2ZM24.276,9.874c-.604-2.281-2.678-3.874-5.046-3.874-1.409,0-2.724,.546-3.692,1.528-.992,.978-1.538,2.292-1.538,3.702v23.77h-2V11.23c0-3.987,3.243-7.23,7.23-7.23,1.586,0,3.149,.527,4.402,1.484,1.276,.976,2.169,2.309,2.581,3.856l8.191,30.322-1.884,.686L24.276,9.874Zm4.205,40.154c.98-1.314,2.187-2.396,3.589-3.218,1.399-.831,2.934-1.369,4.562-1.6l16.803-2.4c1.143-.169,2.307,.17,3.182,.927,.88,.76,1.384,1.866,1.384,3.033v1.915c-.911-.435-1.926-.685-3-.685-3.519,0-6.432,2.613-6.92,6H26.5c.413-1.417,1.072-2.759,1.981-3.972Zm-2.481,7.432c0-.492,.038-.978,.095-1.46h21.985c.102,.706,.308,1.378,.605,2H26v-.54Zm29,2.54c-2.757,0-5-2.243-5-5s2.243-5,5-5,5,2.243,5,5-2.243,5-5,5Z"/><path d="M5.001,62c.15,0,.303-.034,.446-.105,1.574-.788,2.553-2.37,2.553-4.13v-.764c0-.552-.447-1-1-1s-1,.448-1,1v.764c0,.998-.555,1.895-1.447,2.341-.494,.247-.694,.848-.447,1.342,.176,.351,.528,.553,.896,.553Z"/><path d="M19,56c-.553,0-1,.448-1,1v.764c0,1.76,.979,3.343,2.553,4.13,.144,.072,.296,.105,.446,.105,.367,0,.72-.202,.896-.553,.247-.494,.047-1.095-.447-1.342-.893-.446-1.447-1.343-1.447-2.341v-.764c0-.552-.447-1-1-1Z"/><path d="M14,61v-4c0-.552-.447-1-1-1s-1,.448-1,1v4c0,.552,.447,1,1,1s1-.448,1-1Z"/><circle cx="55" cy="55" r="2"/></svg>